<svg width="17" height="21" viewBox="0 0 17 21" fill="none" xmlns="http://www.w3.org/2000/svg">
<path d="M14.0919 7.20431H14.8467V7.62742C14.3585 10.0231 14.0005 12.4628 14.0005 14.9084V15.6666H13.2296M14.0919 7.20431C14.295 5.92819 14.5319 4.65715 14.8027 3.39118C14.8315 3.25409 14.8467 3.11362 14.8467 2.97314H2.15326C2.15326 3.11362 2.16849 3.25409 2.19726 3.39118C2.46806 4.65715 2.705 5.92819 2.9081 7.20431H14.0919ZM13.2296 15.6666C13.1794 16.7841 13.1543 17.9025 13.1543 19.0211V19.8978H3.84572V19.0211C3.84572 17.9015 3.82033 16.7837 3.77041 15.6666M13.2296 15.6666H3.77041M3.77041 15.6666H2.99949V14.9084C2.99949 12.4628 2.64153 10.0231 2.15326 7.62742V7.20431H2.90725M0.460793 2.97314V2.55003L0.956684 2.30208C1.72288 1.91895 2.3055 1.24714 2.57637 0.434448H14.4236C14.6945 1.24714 15.2771 1.91895 16.0433 2.30208L16.5392 2.55003V2.97314H0.460793Z" stroke="black" stroke-width="0.846232"/>
</svg>
